<svg xmlns="http://www.w3.org/2000/svg" width="180" height="180" viewBox="0 0 512 512">
  <defs>
    <linearGradient id="bg" x1="0" y1="0" x2="1" y2="1">
      <stop offset="0" stop-color="#0b0f0d"/>
      <stop offset="1" stop-color="#121a16"/>
    </linearGradient>
    <linearGradient id="accent" x1="0" y1="0" x2="1" y2="0">
      <stop offset="0" stop-color="#2b7a4b"/>
      <stop offset="1" stop-color="#1f5f3c"/>
    </linearGradient>
  </defs>
  <rect x="32" y="32" width="448" height="448" rx="96" fill="url(#bg)"/>
  <path
    d="M168 168h176c22.1 0 40 17.9 40 40v120c0 22.1-17.9 40-40 40H168c-22.1 0-40-17.9-40-40V208c0-22.1 17.9-40 40-40z"
    fill="#1a2420"
  />
  <path d="M184 224h144v24H184z" fill="#cfe7d9" opacity="0.9"/>
  <path d="M184 272h108v24H184z" fill="#cfe7d9" opacity="0.9"/>
  <path d="M184 320h144v24H184z" fill="#cfe7d9" opacity="0.9"/>
  <path d="M184 320h88v24H184z" fill="url(#accent)"/>
</svg>


